<?xml version="1.0" encoding="iso-8859-1"?>
<!-- Generator: Adobe Illustrator 19.0.0, SVG Export Plug-In . SVG Version: 6.00 Build 0)  -->
<svg version="1.1" id="Layer_1" xmlns="http://www.w3.org/2000/svg" xmlns:xlink="http://www.w3.org/1999/xlink" x="0px" y="0px"
	 viewBox="0 0 512.001 512.001" style="enable-background:new 0 0 512.001 512.001;" xml:space="preserve">
<g>
	<g>
		<path d="M375.677,317.559l-33.466-79.218c-0.137-0.323-0.287-0.638-0.451-0.948c-6.726-12.646-20.054-20.112-34.303-19.434
			c-1.988-0.319-4.009-0.485-6.046-0.485h-12.158l-0.602-2.394h56.385c6.504,0,11.778-5.273,11.778-11.778v-89.04
			c0-55.592-45.226-100.818-100.818-100.818c-55.592,0-100.818,45.226-100.818,100.818v89.04c0,6.505,5.274,11.778,11.778,11.778
			h55.858l-0.599,2.394H210.58c-2.036,0-4.059,0.166-6.048,0.486c-14.244-0.674-27.573,6.789-34.301,19.434
			c-0.164,0.31-0.314,0.625-0.451,0.948l-14.878,35.22c-21.577,3.492-41.45,8.084-59.062,13.668C16.628,312.346,0,352.735,0,382.195
			s16.628,69.849,95.845,94.967c8.685,2.754,18.032,5.298,27.779,7.561c0.897,0.208,1.793,0.309,2.675,0.309
			c5.354,0,10.198-3.677,11.462-9.116c1.472-6.337-2.472-12.666-8.808-14.138c-9.149-2.125-17.892-4.504-25.989-7.07
			c-51.95-16.473-79.409-41.547-79.409-72.512c0-30.965,27.459-56.041,79.409-72.512c12.48-3.957,26.228-7.393,41.018-10.264
			l-7.662,18.136c-62.341,13.792-96.565,36.642-96.565,64.642c0,23.207,23.55,42.941,68.104,57.069
			c39.739,12.6,92.348,19.54,148.138,19.54c55.79,0,108.399-6.94,148.138-19.54c44.554-14.126,68.104-33.862,68.104-57.069
			C472.24,354.2,438.018,331.351,375.677,317.559z M322.721,252.73l32.016,75.787c0.029,0.071,0.061,0.143,0.092,0.212
			c0.323,0.724,0.595,1.471,0.819,2.235c0.005,0.019,0.007,0.036,0.012,0.055c1.303,4.499,0.86,9.73-1.225,15.022
			c-0.005,0.012-0.011,0.025-0.015,0.036c-0.296,0.749-0.624,1.498-0.985,2.247l-45.194,51.448l-10.181-9.041l32.618-38.349
			c2.883-3.39,3.61-8.117,1.877-12.217l-28.902-68.367L322.721,252.73z M178.738,191.523v-0.001v-77.261
			c0-42.602,34.66-77.262,77.262-77.262s77.262,34.66,77.262,77.262v77.262h-29.894c0.058-0.058,0.111-0.12,0.17-0.178
			c0.737-0.739,1.459-1.495,2.161-2.272c0.147-0.161,0.287-0.329,0.432-0.492c0.581-0.656,1.148-1.325,1.704-2.007
			c0.172-0.211,0.345-0.42,0.515-0.634c0.657-0.828,1.3-1.67,1.921-2.536c0.091-0.126,0.177-0.258,0.267-0.385
			c0.539-0.762,1.062-1.541,1.572-2.33c0.158-0.245,0.316-0.49,0.47-0.736c0.576-0.918,1.139-1.846,1.676-2.797
			c0.013-0.024,0.025-0.047,0.039-0.071c0.525-0.934,1.025-1.889,1.512-2.856c0.134-0.265,0.265-0.532,0.396-0.801
			c0.431-0.883,0.849-1.779,1.25-2.688c0.057-0.13,0.118-0.256,0.174-0.385c0.443-1.022,0.86-2.065,1.263-3.119
			c0.105-0.277,0.207-0.556,0.31-0.834c0.327-0.889,0.642-1.789,0.941-2.699c0.071-0.216,0.146-0.428,0.214-0.644
			c0.347-1.089,0.673-2.195,0.978-3.313c0.074-0.272,0.143-0.547,0.214-0.82c0.244-0.927,0.472-1.863,0.687-2.809
			c0.062-0.274,0.127-0.548,0.187-0.823c0.251-1.155,0.481-2.324,0.688-3.506c0.042-0.241,0.079-0.486,0.119-0.729
			c0.166-0.995,0.317-2,0.452-3.014c0.042-0.314,0.085-0.628,0.124-0.943c0.151-1.223,0.284-2.455,0.391-3.703
			c0.014-0.167,0.022-0.337,0.036-0.504c0.088-1.109,0.157-2.23,0.21-3.359c0.015-0.34,0.031-0.68,0.044-1.021
			c0.047-1.29,0.08-2.588,0.08-3.901v-0.001v-22.316c0-6.505-5.274-11.778-11.778-11.778h-113.57
			c-6.504,0-11.778,5.273-11.778,11.778v22.316v0.001c0,1.327,0.032,2.638,0.078,3.94c0.012,0.345,0.027,0.688,0.042,1.031
			c0.052,1.152,0.119,2.294,0.206,3.425c0.012,0.153,0.019,0.31,0.032,0.462c0.104,1.26,0.233,2.503,0.382,3.735
			c0.038,0.314,0.079,0.627,0.12,0.94c0.134,1.039,0.284,2.068,0.45,3.086c0.036,0.221,0.067,0.445,0.105,0.664
			c0.204,1.194,0.43,2.372,0.676,3.537c0.058,0.272,0.12,0.541,0.18,0.812c0.214,0.967,0.443,1.923,0.687,2.87
			c0.064,0.249,0.125,0.501,0.191,0.748c0.302,1.127,0.622,2.24,0.966,3.336c0.068,0.218,0.141,0.431,0.212,0.648
			c0.297,0.921,0.609,1.83,0.935,2.729c0.093,0.256,0.184,0.514,0.279,0.767c0.398,1.06,0.812,2.106,1.251,3.133
			c0.061,0.144,0.127,0.284,0.19,0.428c0.392,0.901,0.801,1.788,1.224,2.662c0.12,0.248,0.24,0.497,0.363,0.742
			c0.493,0.991,1.001,1.968,1.535,2.923c0.024,0.041,0.048,0.081,0.072,0.122c0.513,0.914,1.049,1.806,1.599,2.687
			c0.145,0.232,0.292,0.463,0.439,0.693c0.548,0.854,1.109,1.695,1.691,2.517c0.04,0.057,0.078,0.115,0.118,0.172
			c0.621,0.869,1.266,1.714,1.926,2.545c0.166,0.21,0.336,0.417,0.504,0.624c0.577,0.71,1.167,1.406,1.774,2.087
			c0.109,0.122,0.214,0.25,0.325,0.371c0.702,0.776,1.424,1.53,2.162,2.267c0.068,0.068,0.132,0.141,0.2,0.21H178.738z
			 M231.409,241.029L231.409,241.029c5.401,0,10.111-3.675,11.425-8.915l6.504-25.949v-0.001l1.804-7.2
			c0.195-0.782,0.309-1.565,0.344-2.34c0.246-5.427-3.307-10.471-8.76-11.911c-10.74-2.836-17.888-8.828-22.627-15.868
			c-0.79-1.173-1.513-2.377-2.174-3.598c-0.331-0.611-0.647-1.227-0.947-1.847c-5.113-10.534-5.984-22.122-5.984-28.786v-10.538
			h90.014v10.538c0,10.658-2.23,33.807-20.355,45.228c-3.357,2.115-7.259,3.828-11.792,4.984c-1.571,0.402-2.988,1.101-4.205,2.023
			c-0.608,0.462-1.166,0.979-1.669,1.542c-0.251,0.281-0.489,0.575-0.71,0.879c-1.557,2.125-2.397,4.756-2.273,7.486
			c0.035,0.78,0.148,1.569,0.346,2.356l1.776,7.062c0,0,0,0,0,0.001l6.525,25.948c1.317,5.235,6.023,8.906,11.422,8.906h21.038
			l-9.565,9.566l-35.546,35.546l-35.546-35.546l-9.565-9.566H231.409z M226.32,289.776l21.351,21.349
			c2.21,2.208,5.205,3.45,8.328,3.45c3.124,0,6.119-1.241,8.328-3.45l21.349-21.349l22.353,52.878l-23.039,27.086
			c-19.154,0.88-38.831,0.88-57.985,0l-23.039-27.086L226.32,289.776z M156.34,331.017c0.006-0.02,0.008-0.04,0.013-0.061
			c0.224-0.761,0.495-1.504,0.816-2.226c0.031-0.071,0.062-0.141,0.092-0.212l32.016-75.786l19.068,19.07l-28.902,68.367
			c-1.734,4.1-1.006,8.826,1.877,12.217l32.618,38.349l-10.181,9.041l-45.194-51.448c-0.36-0.747-0.687-1.495-0.982-2.241
			c-0.006-0.015-0.013-0.032-0.019-0.047C155.478,340.746,155.037,335.516,156.34,331.017z M397.019,416.81
			c-37.499,11.89-87.58,18.437-141.018,18.437s-103.521-6.549-141.018-18.437c-38.136-12.092-51.667-26.204-51.667-34.614
			c0-11.236,21.759-27.718,69.135-39.533c0.503,3.672,1.452,7.371,2.836,11.052c0.045,0.121,0.092,0.241,0.138,0.363
			c0.225,0.588,0.457,1.174,0.704,1.761c0.145,0.345,0.3,0.689,0.453,1.033c0.184,0.413,0.363,0.828,0.558,1.24
			c0.363,0.769,0.742,1.535,1.144,2.298c0.013,0.024,0.024,0.048,0.035,0.072c0.431,0.816,0.958,1.579,1.566,2.273l53.992,61.463
			c2.068,2.356,4.99,3.788,8.12,3.982c0.244,0.015,0.486,0.022,0.729,0.022c0.087,0,0.174-0.011,0.263-0.012
			c0.14-0.004,0.28-0.011,0.419-0.019c0.243-0.014,0.483-0.034,0.723-0.064c0.13-0.015,0.259-0.033,0.389-0.053
			c0.243-0.038,0.483-0.082,0.723-0.135c0.127-0.028,0.254-0.057,0.38-0.088c0.234-0.06,0.466-0.128,0.698-0.203
			c0.126-0.04,0.253-0.08,0.378-0.125c0.225-0.08,0.445-0.172,0.665-0.266c0.125-0.053,0.25-0.104,0.372-0.16
			c0.218-0.102,0.43-0.217,0.641-0.333c0.117-0.064,0.236-0.122,0.35-0.19c0.221-0.131,0.435-0.276,0.649-0.423
			c0.097-0.066,0.195-0.125,0.29-0.194c0.303-0.221,0.597-0.455,0.88-0.706l27.656-24.558c0.283-0.251,0.547-0.514,0.8-0.784
			c0.084-0.089,0.158-0.184,0.238-0.276c0.163-0.186,0.323-0.372,0.472-0.567c0.086-0.112,0.166-0.229,0.249-0.343
			c0.13-0.181,0.257-0.365,0.375-0.552c0.078-0.122,0.151-0.246,0.224-0.372c0.11-0.188,0.213-0.379,0.312-0.572
			c0.065-0.127,0.128-0.254,0.188-0.383c0.094-0.203,0.18-0.409,0.263-0.616c0.048-0.122,0.099-0.243,0.143-0.366
			c0.085-0.237,0.158-0.477,0.227-0.718c0.028-0.097,0.061-0.192,0.086-0.289c0.088-0.34,0.165-0.684,0.223-1.031
			c9.328,0.198,18.673,0.198,28,0c0.058,0.346,0.134,0.69,0.223,1.031c0.025,0.098,0.058,0.192,0.086,0.289
			c0.069,0.241,0.142,0.482,0.227,0.718c0.044,0.122,0.094,0.244,0.143,0.365c0.082,0.208,0.168,0.415,0.263,0.618
			c0.06,0.128,0.122,0.254,0.187,0.38c0.099,0.193,0.203,0.385,0.312,0.574c0.073,0.125,0.146,0.249,0.224,0.371
			c0.119,0.187,0.245,0.371,0.375,0.552c0.082,0.115,0.163,0.231,0.248,0.343c0.15,0.193,0.31,0.38,0.472,0.566
			c0.08,0.092,0.154,0.186,0.238,0.276c0.252,0.271,0.517,0.534,0.8,0.784l27.656,24.558c0.28,0.25,0.574,0.483,0.874,0.702
			c0.119,0.087,0.244,0.163,0.366,0.245c0.184,0.124,0.367,0.251,0.557,0.364c0.155,0.092,0.316,0.173,0.473,0.258
			c0.165,0.088,0.33,0.179,0.498,0.259c0.171,0.081,0.346,0.152,0.522,0.225c0.165,0.069,0.331,0.139,0.499,0.2
			c0.175,0.064,0.355,0.12,0.534,0.175c0.177,0.055,0.353,0.108,0.532,0.155c0.173,0.045,0.346,0.084,0.522,0.121
			c0.194,0.041,0.389,0.078,0.585,0.11c0.165,0.026,0.331,0.049,0.497,0.068c0.211,0.025,0.423,0.042,0.636,0.055
			c0.159,0.009,0.317,0.019,0.477,0.022c0.082,0.001,0.165,0.012,0.247,0.012c0.241,0,0.485-0.007,0.729-0.022
			c3.128-0.194,6.052-1.628,8.12-3.982l53.992-61.463c0.61-0.694,1.135-1.456,1.566-2.273c0.013-0.025,0.023-0.049,0.036-0.073
			c0.4-0.76,0.779-1.524,1.141-2.291c0.199-0.422,0.383-0.844,0.57-1.267c0.148-0.334,0.299-0.668,0.439-1.002
			c0.252-0.595,0.488-1.191,0.716-1.788c0.041-0.11,0.084-0.219,0.125-0.329c1.386-3.685,2.337-7.387,2.842-11.063
			c47.382,11.81,69.134,28.289,69.134,39.526C448.686,390.606,435.155,404.718,397.019,416.81z"/>
	</g>
</g>
<g>
	<g>
		<path d="M173.331,477.697c-0.154-0.754-0.377-1.496-0.671-2.202c-0.294-0.718-0.661-1.402-1.085-2.038
			c-0.435-0.648-0.929-1.248-1.472-1.79c-0.542-0.542-1.142-1.036-1.79-1.46c-0.636-0.424-1.319-0.789-2.026-1.084
			c-0.718-0.294-1.46-0.53-2.202-0.671c-1.519-0.306-3.086-0.306-4.605,0c-0.754,0.141-1.496,0.377-2.202,0.671
			c-0.719,0.294-1.4,0.66-2.036,1.084c-0.649,0.424-1.25,0.919-1.791,1.46c-0.542,0.542-1.036,1.142-1.46,1.79
			c-0.423,0.636-0.789,1.319-1.084,2.038c-0.294,0.707-0.517,1.449-0.67,2.202c-0.154,0.754-0.236,1.531-0.236,2.297
			s0.081,1.543,0.236,2.308c0.153,0.742,0.376,1.484,0.67,2.203c0.294,0.707,0.661,1.39,1.084,2.026
			c0.424,0.648,0.919,1.248,1.46,1.79c0.542,0.542,1.142,1.036,1.791,1.472c0.636,0.424,1.318,0.789,2.036,1.084
			c0.708,0.294,1.449,0.518,2.202,0.671c0.754,0.153,1.531,0.224,2.297,0.224c0.764,0,1.543-0.071,2.308-0.224
			c0.742-0.153,1.484-0.377,2.202-0.671c0.707-0.294,1.39-0.66,2.026-1.084c0.648-0.436,1.248-0.93,1.79-1.472
			c2.202-2.191,3.452-5.218,3.452-8.327C173.555,479.228,173.483,478.451,173.331,477.697z"/>
	</g>
</g>
<g>
	<g>
		<path d="M453.031,302.083c-5.791-2.961-12.886-0.67-15.851,5.12c-2.963,5.791-0.67,12.886,5.12,15.851
			c30.619,15.667,46.145,35.566,46.145,59.141c0,30.967-27.459,56.041-79.409,72.512c-41.279,13.088-95.628,20.296-153.036,20.296
			c-6.504,0-11.778,5.273-11.778,11.778s5.274,11.778,11.778,11.778c59.757,0,116.635-7.599,160.155-21.398
			c79.217-25.118,95.845-65.508,95.845-94.967C512,359.414,501.768,327.023,453.031,302.083z"/>
	</g>
</g>
<g>
	<g>
		<path d="M425.095,296.458c-0.14-0.754-0.365-1.496-0.66-2.202c-0.294-0.707-0.66-1.39-1.084-2.038
			c-0.436-0.636-0.93-1.248-1.472-1.79c-2.191-2.191-5.229-3.439-8.327-3.439s-6.136,1.248-8.326,3.439
			c-0.542,0.554-1.038,1.154-1.46,1.79c-0.424,0.648-0.789,1.331-1.084,2.038s-0.518,1.449-0.671,2.202
			c-0.153,0.766-0.236,1.531-0.236,2.308c0,0.766,0.082,1.531,0.236,2.297c0.152,0.754,0.377,1.496,0.671,2.203
			s0.66,1.39,1.084,2.038c0.423,0.636,0.919,1.248,1.46,1.79c2.19,2.191,5.228,3.451,8.326,3.451s6.136-1.26,8.327-3.451
			c0.542-0.542,1.036-1.142,1.472-1.79c0.424-0.648,0.789-1.331,1.084-2.038c0.294-0.707,0.518-1.449,0.66-2.203
			c0.154-0.766,0.236-1.531,0.236-2.297C425.331,297.989,425.25,297.223,425.095,296.458z"/>
	</g>
</g>
<g>
</g>
<g>
</g>
<g>
</g>
<g>
</g>
<g>
</g>
<g>
</g>
<g>
</g>
<g>
</g>
<g>
</g>
<g>
</g>
<g>
</g>
<g>
</g>
<g>
</g>
<g>
</g>
<g>
</g>
</svg>
